<svg width="48" height="48" viewBox="0 0 48 48" fill="none" xmlns="http://www.w3.org/2000/svg">
<path d="M5 38V16H43V38C43 40.2 41.2 42 39 42H9C6.8 42 5 40.2 5 38Z" fill="#E1F5FE"/>
<path d="M43 10V16H5V10C5 7.8 6.8 6 9 6H39C41.2 6 43 7.8 43 10Z" fill="#64FFDA"/>
<path d="M33 13C34.6569 13 36 11.6569 36 10C36 8.34315 34.6569 7 33 7C31.3431 7 30 8.34315 30 10C30 11.6569 31.3431 13 33 13Z" fill="#00BB8E"/>
<path d="M15 13C16.6569 13 18 11.6569 18 10C18 8.34315 16.6569 7 15 7C13.3431 7 12 8.34315 12 10C12 11.6569 13.3431 13 15 13Z" fill="#00BB8E"/>
<path d="M33 3C31.9 3 31 3.9 31 5V10C31 11.1 31.9 12 33 12C34.1 12 35 11.1 35 10V5C35 3.9 34.1 3 33 3Z" fill="#8EC5DE"/>
<path d="M15 3C13.9 3 13 3.9 13 5V10C13 11.1 13.9 12 15 12C16.1 12 17 11.1 17 10V5C17 3.9 16.1 3 15 3Z" fill="#8EC5DE"/>
<path d="M13 22C13 23.1046 13.8954 24 15 24C16.1046 24 17 23.1046 17 22C17 20.8954 16.1046 20 15 20C13.8954 20 13 20.8954 13 22Z" fill="#0277BD"/>
<path d="M19 22C19 23.1046 19.8954 24 21 24C22.1046 24 23 23.1046 23 22C23 20.8954 22.1046 20 21 20C19.8954 20 19 20.8954 19 22Z" fill="#0277BD"/>
<path d="M25 22C25 23.1046 25.8954 24 27 24C28.1046 24 29 23.1046 29 22C29 20.8954 28.1046 20 27 20C25.8954 20 25 20.8954 25 22Z" fill="#0277BD"/>
<path d="M31 22C31 23.1046 31.8954 24 33 24C34.1046 24 35 23.1046 35 22C35 20.8954 34.1046 20 33 20C31.8954 20 31 20.8954 31 22Z" fill="#0277BD"/>
<path d="M13 28C13 29.1046 13.8954 30 15 30C16.1046 30 17 29.1046 17 28C17 26.8954 16.1046 26 15 26C13.8954 26 13 26.8954 13 28Z" fill="#0277BD"/>
<path d="M19 28C19 29.1046 19.8954 30 21 30C22.1046 30 23 29.1046 23 28C23 26.8954 22.1046 26 21 26C19.8954 26 19 26.8954 19 28Z" fill="#0277BD"/>
<path d="M25 28C25 29.1046 25.8954 30 27 30C28.1046 30 29 29.1046 29 28C29 26.8954 28.1046 26 27 26C25.8954 26 25 26.8954 25 28Z" fill="#0277BD"/>
<path d="M31 28C31 29.1046 31.8954 30 33 30C34.1046 30 35 29.1046 35 28C35 26.8954 34.1046 26 33 26C31.8954 26 31 26.8954 31 28Z" fill="#0277BD"/>
<path d="M13 34C13 35.1046 13.8954 36 15 36C16.1046 36 17 35.1046 17 34C17 32.8954 16.1046 32 15 32C13.8954 32 13 32.8954 13 34Z" fill="#0277BD"/>
<path d="M19 34C19 35.1046 19.8954 36 21 36C22.1046 36 23 35.1046 23 34C23 32.8954 22.1046 32 21 32C19.8954 32 19 32.8954 19 34Z" fill="#0277BD"/>
<path d="M25 34C25 35.1046 25.8954 36 27 36C28.1046 36 29 35.1046 29 34C29 32.8954 28.1046 32 27 32C25.8954 32 25 32.8954 25 34Z" fill="#0277BD"/>
<path d="M31 34C31 35.1046 31.8954 36 33 36C34.1046 36 35 35.1046 35 34C35 32.8954 34.1046 32 33 32C31.8954 32 31 32.8954 31 34Z" fill="#0277BD"/>
</svg>
