<svg width="49" height="48" viewBox="0 0 49 48" fill="none" xmlns="http://www.w3.org/2000/svg">
<path d="M24.4999 42.5682C34.7549 42.5682 43.0681 34.255 43.0681 24.0001C43.0681 13.7451 34.7549 5.43188 24.4999 5.43188C14.245 5.43188 5.93176 13.7451 5.93176 24.0001C5.93176 34.255 14.245 42.5682 24.4999 42.5682Z" fill="#64FFDA"/>
<path d="M24.5 43C14.0232 43 5.5 34.4768 5.5 24C5.5 17.996 8.24896 12.4722 13.0413 8.84318C13.2295 8.69895 13.5007 8.73609 13.6458 8.92695C13.79 9.11695 13.7529 9.38814 13.562 9.5315C8.98736 12.9955 6.36364 18.2689 6.36364 24C6.36364 34.0009 14.5 42.1364 24.5 42.1364C34.5 42.1364 42.6364 34.0009 42.6364 24C42.6364 13.9991 34.5 5.86364 24.5 5.86364C21.2199 5.86364 18.0063 6.748 15.2073 8.42259C15.0017 8.5435 14.7366 8.47786 14.6148 8.27318C14.4913 8.0685 14.5595 7.80336 14.7634 7.68073C17.698 5.92755 21.0636 5 24.5 5C34.9768 5 43.5 13.5232 43.5 24C43.5 34.4768 34.9768 43 24.5 43Z" fill="#0277BD"/>
<path d="M24.5 42.1364C14.5 42.1364 6.36365 34.0009 6.36365 24C6.36365 18.3449 8.93297 13.1139 13.4109 9.64724C13.5975 9.50215 13.8695 9.53583 14.0163 9.7241C14.1623 9.91324 14.1277 10.1844 13.9386 10.3304C9.67397 13.6321 7.22728 18.6144 7.22728 24C7.22728 33.5242 14.9758 41.2727 24.5 41.2727C34.0242 41.2727 41.7727 33.5242 41.7727 24C41.7727 14.4758 34.0242 6.72728 24.5 6.72728C21.3616 6.72728 18.2905 7.57624 15.6158 9.18433C15.412 9.30783 15.146 9.24133 15.0225 9.03665C14.899 8.83283 14.9663 8.56769 15.1701 8.44419C17.9796 6.75578 21.2061 5.86365 24.5 5.86365C34.5001 5.86365 42.6364 13.9991 42.6364 24C42.6364 34.0009 34.5001 42.1364 24.5 42.1364Z" fill="white"/>
<path d="M24.5001 39.9773C33.3241 39.9773 40.4774 32.824 40.4774 24C40.4774 15.176 33.3241 8.02271 24.5001 8.02271C15.6761 8.02271 8.52283 15.176 8.52283 24C8.52283 32.824 15.6761 39.9773 24.5001 39.9773Z" fill="#E1F5FE"/>
<path d="M24.5002 40.4091C15.4518 40.4091 8.09106 33.0484 8.09106 24C8.09106 14.9517 15.4518 7.59094 24.5002 7.59094C33.5485 7.59094 40.9092 14.9517 40.9092 24C40.9092 27.5755 39.7787 30.9739 37.6412 33.8282C37.497 34.0199 37.2267 34.0579 37.0367 33.9154C36.8458 33.7721 36.807 33.5018 36.9495 33.3109C38.9756 30.606 40.0456 27.3872 40.0456 24C40.0456 15.4284 33.0717 8.45458 24.5002 8.45458C15.9286 8.45458 8.9547 15.4284 8.9547 24C8.9547 32.5716 15.9286 39.5455 24.5002 39.5455C28.6465 39.5455 32.5449 37.9331 35.4787 35.0045C35.6471 34.8369 35.9209 34.8361 36.0893 35.0054C36.2577 35.1738 36.2577 35.4475 36.0893 35.6159C32.9923 38.7069 28.8762 40.4091 24.5002 40.4091Z" fill="#0277BD"/>
<path d="M24.5 39.5454C15.9285 39.5454 8.95459 32.5715 8.95459 23.9999C8.95459 15.4283 15.9285 8.45447 24.5 8.45447C33.0716 8.45447 40.0455 15.4283 40.0455 23.9999C40.0455 27.3871 38.9755 30.6067 36.9502 33.3099C36.8069 33.5016 36.5365 33.5388 36.3457 33.3972C36.1548 33.2538 36.116 32.9835 36.2585 32.7926C38.1714 30.2397 39.1819 27.1988 39.1819 23.9999C39.1819 15.9042 32.5958 9.3181 24.5 9.3181C16.4043 9.3181 9.81823 15.9042 9.81823 23.9999C9.81823 32.0956 16.4043 38.6817 24.5 38.6817C28.5125 38.6817 32.2598 37.0935 35.0502 34.209C35.2152 34.038 35.4898 34.0336 35.6608 34.1986C35.8318 34.3644 35.837 34.6382 35.6712 34.8092C32.7167 37.8639 28.7491 39.5454 24.5 39.5454Z" fill="white"/>
<path d="M30.9772 13.2132C31.2157 13.2132 31.409 13.0199 31.409 12.7814C31.409 12.5429 31.2157 12.3496 30.9772 12.3496C30.7387 12.3496 30.5454 12.5429 30.5454 12.7814C30.5454 13.0199 30.7387 13.2132 30.9772 13.2132Z" fill="#FF80AB"/>
<path d="M30.9773 13.6451C31.4543 13.6451 31.8409 13.2585 31.8409 12.7815C31.8409 12.3045 31.4543 11.9178 30.9773 11.9178C30.5003 11.9178 30.1136 12.3045 30.1136 12.7815C30.1136 13.2585 30.5003 13.6451 30.9773 13.6451Z" fill="#0277BD"/>
<path d="M18.0229 35.6505C18.2614 35.6505 18.4547 35.4572 18.4547 35.2187C18.4547 34.9802 18.2614 34.7869 18.0229 34.7869C17.7844 34.7869 17.5911 34.9802 17.5911 35.2187C17.5911 35.4572 17.7844 35.6505 18.0229 35.6505Z" fill="#FF80AB"/>
<path d="M18.0226 36.0824C18.4995 36.0824 18.8862 35.6957 18.8862 35.2187C18.8862 34.7418 18.4995 34.3551 18.0226 34.3551C17.5456 34.3551 17.1589 34.7418 17.1589 35.2187C17.1589 35.6957 17.5456 36.0824 18.0226 36.0824Z" fill="#0277BD"/>
<path d="M35.7186 17.9546C35.957 17.9546 36.1504 17.7612 36.1504 17.5228C36.1504 17.2843 35.957 17.0909 35.7186 17.0909C35.4801 17.0909 35.2867 17.2843 35.2867 17.5228C35.2867 17.7612 35.4801 17.9546 35.7186 17.9546Z" fill="#FF80AB"/>
<path d="M35.7185 18.3865C36.1955 18.3865 36.5821 17.9998 36.5821 17.5228C36.5821 17.0458 36.1955 16.6592 35.7185 16.6592C35.2415 16.6592 34.8549 17.0458 34.8549 17.5228C34.8549 17.9998 35.2415 18.3865 35.7185 18.3865Z" fill="#0277BD"/>
<path d="M13.2813 30.9092C13.5198 30.9092 13.7131 30.7158 13.7131 30.4774C13.7131 30.2389 13.5198 30.0455 13.2813 30.0455C13.0428 30.0455 12.8495 30.2389 12.8495 30.4774C12.8495 30.7158 13.0428 30.9092 13.2813 30.9092Z" fill="#FF80AB"/>
<path d="M13.2812 31.3409C13.7582 31.3409 14.1449 30.9543 14.1449 30.4773C14.1449 30.0003 13.7582 29.6136 13.2812 29.6136C12.8043 29.6136 12.4176 30.0003 12.4176 30.4773C12.4176 30.9543 12.8043 31.3409 13.2812 31.3409Z" fill="#0277BD"/>
<path d="M37.4546 24.4319C37.6931 24.4319 37.8865 24.2385 37.8865 24.0001C37.8865 23.7616 37.6931 23.5682 37.4546 23.5682C37.2162 23.5682 37.0228 23.7616 37.0228 24.0001C37.0228 24.2385 37.2162 24.4319 37.4546 24.4319Z" fill="#FF80AB"/>
<path d="M37.4547 24.8637C37.9317 24.8637 38.3183 24.4771 38.3183 24.0001C38.3183 23.5231 37.9317 23.1365 37.4547 23.1365C36.9777 23.1365 36.5911 23.5231 36.5911 24.0001C36.5911 24.4771 36.9777 24.8637 37.4547 24.8637Z" fill="#0277BD"/>
<path d="M11.5455 24.4319C11.784 24.4319 11.9773 24.2385 11.9773 24.0001C11.9773 23.7616 11.784 23.5682 11.5455 23.5682C11.307 23.5682 11.1136 23.7616 11.1136 24.0001C11.1136 24.2385 11.307 24.4319 11.5455 24.4319Z" fill="#FF80AB"/>
<path d="M11.5454 24.8637C12.0224 24.8637 12.409 24.4771 12.409 24.0001C12.409 23.5231 12.0224 23.1365 11.5454 23.1365C11.0684 23.1365 10.6818 23.5231 10.6818 24.0001C10.6818 24.4771 11.0684 24.8637 11.5454 24.8637Z" fill="#0277BD"/>
<path d="M35.7186 30.9092C35.957 30.9092 36.1504 30.7158 36.1504 30.4774C36.1504 30.2389 35.957 30.0455 35.7186 30.0455C35.4801 30.0455 35.2867 30.2389 35.2867 30.4774C35.2867 30.7158 35.4801 30.9092 35.7186 30.9092Z" fill="#FF80AB"/>
<path d="M35.7185 31.3409C36.1955 31.3409 36.5821 30.9543 36.5821 30.4773C36.5821 30.0003 36.1955 29.6136 35.7185 29.6136C35.2415 29.6136 34.8549 30.0003 34.8549 30.4773C34.8549 30.9543 35.2415 31.3409 35.7185 31.3409Z" fill="#0277BD"/>
<path d="M13.2813 17.9546C13.5198 17.9546 13.7131 17.7612 13.7131 17.5228C13.7131 17.2843 13.5198 17.0909 13.2813 17.0909C13.0428 17.0909 12.8495 17.2843 12.8495 17.5228C12.8495 17.7612 13.0428 17.9546 13.2813 17.9546Z" fill="#FF80AB"/>
<path d="M13.2812 18.3865C13.7582 18.3865 14.1449 17.9998 14.1449 17.5228C14.1449 17.0458 13.7582 16.6592 13.2812 16.6592C12.8043 16.6592 12.4176 17.0458 12.4176 17.5228C12.4176 17.9998 12.8043 18.3865 13.2812 18.3865Z" fill="#0277BD"/>
<path d="M30.9772 35.6505C31.2157 35.6505 31.409 35.4572 31.409 35.2187C31.409 34.9802 31.2157 34.7869 30.9772 34.7869C30.7387 34.7869 30.5454 34.9802 30.5454 35.2187C30.5454 35.4572 30.7387 35.6505 30.9772 35.6505Z" fill="#FF80AB"/>
<path d="M30.9773 36.0824C31.4543 36.0824 31.8409 35.6957 31.8409 35.2187C31.8409 34.7418 31.4543 34.3551 30.9773 34.3551C30.5003 34.3551 30.1136 34.7418 30.1136 35.2187C30.1136 35.6957 30.5003 36.0824 30.9773 36.0824Z" fill="#0277BD"/>
<path d="M18.0229 13.2132C18.2614 13.2132 18.4547 13.0199 18.4547 12.7814C18.4547 12.5429 18.2614 12.3496 18.0229 12.3496C17.7844 12.3496 17.5911 12.5429 17.5911 12.7814C17.5911 13.0199 17.7844 13.2132 18.0229 13.2132Z" fill="#FF80AB"/>
<path d="M18.0226 13.6451C18.4995 13.6451 18.8862 13.2585 18.8862 12.7815C18.8862 12.3045 18.4995 11.9178 18.0226 11.9178C17.5456 11.9178 17.1589 12.3045 17.1589 12.7815C17.1589 13.2585 17.5456 13.6451 18.0226 13.6451Z" fill="#0277BD"/>
<path d="M24.5001 37.3865C24.7385 37.3865 24.9319 37.1931 24.9319 36.9546C24.9319 36.7162 24.7385 36.5228 24.5001 36.5228C24.2616 36.5228 24.0682 36.7162 24.0682 36.9546C24.0682 37.1931 24.2616 37.3865 24.5001 37.3865Z" fill="#FF80AB"/>
<path d="M24.5 37.8182C24.977 37.8182 25.3636 37.4316 25.3636 36.9546C25.3636 36.4776 24.977 36.0909 24.5 36.0909C24.023 36.0909 23.6364 36.4776 23.6364 36.9546C23.6364 37.4316 24.023 37.8182 24.5 37.8182Z" fill="#0277BD"/>
<path d="M24.5001 11.4773C24.7385 11.4773 24.9319 11.284 24.9319 11.0455C24.9319 10.807 24.7385 10.6136 24.5001 10.6136C24.2616 10.6136 24.0682 10.807 24.0682 11.0455C24.0682 11.284 24.2616 11.4773 24.5001 11.4773Z" fill="#FF80AB"/>
<path d="M24.5 11.9092C24.977 11.9092 25.3636 11.5225 25.3636 11.0455C25.3636 10.5685 24.977 10.1819 24.5 10.1819C24.023 10.1819 23.6364 10.5685 23.6364 11.0455C23.6364 11.5225 24.023 11.9092 24.5 11.9092Z" fill="#0277BD"/>
<path d="M24.5 27.4546C22.5948 27.4546 21.0454 25.9053 21.0454 24.0001C21.0454 22.0949 22.5948 20.5455 24.5 20.5455C26.4051 20.5455 27.9545 22.0949 27.9545 24.0001C27.9545 25.9053 26.4051 27.4546 24.5 27.4546ZM24.5 21.4092C23.0715 21.4092 21.909 22.5716 21.909 24.0001C21.909 25.4285 23.0715 26.591 24.5 26.591C25.9284 26.591 27.0909 25.4285 27.0909 24.0001C27.0909 22.5716 25.9284 21.4092 24.5 21.4092Z" fill="white"/>
<path d="M24.5 24.4318C24.3446 24.4318 24.1943 24.3472 24.1175 24.2003C24.0069 23.9888 24.089 23.7279 24.2997 23.6174L33.3679 18.8674C33.5795 18.756 33.8403 18.838 33.9517 19.0496C34.0622 19.2612 33.9802 19.522 33.7695 19.6326L24.7013 24.3826C24.6365 24.4163 24.5674 24.4318 24.5 24.4318Z" fill="#0277BD"/>
<path d="M24.5 24.4318C24.3679 24.4318 24.2358 24.3705 24.152 24.2557L19.402 17.7784C19.2612 17.5858 19.3027 17.3155 19.4944 17.1747C19.6861 17.0331 19.9573 17.0754 20.0981 17.2671L24.8481 23.7444C24.9888 23.937 24.9474 24.2073 24.7557 24.3481C24.6788 24.4051 24.589 24.4318 24.5 24.4318Z" fill="#0277BD"/>
<path d="M24.5002 26.159C25.6926 26.159 26.6592 25.1923 26.6592 23.9999C26.6592 22.8075 25.6926 21.8408 24.5002 21.8408C23.3077 21.8408 22.3411 22.8075 22.3411 23.9999C22.3411 25.1923 23.3077 26.159 24.5002 26.159Z" fill="#FF80AB"/>
<path d="M24.4998 26.5909C23.0714 26.5909 21.9089 25.4284 21.9089 24C21.9089 22.5715 23.0714 21.4091 24.4998 21.4091C25.9283 21.4091 27.0908 22.5715 27.0908 24C27.0908 25.4284 25.9283 26.5909 24.4998 26.5909ZM24.4998 22.2727C23.5473 22.2727 22.7726 23.0474 22.7726 24C22.7726 24.9526 23.5473 25.7272 24.4998 25.7272C25.4524 25.7272 26.2271 24.9526 26.2271 24C26.2271 23.0474 25.4524 22.2727 24.4998 22.2727Z" fill="#0277BD"/>
<path d="M24.5001 25.7273C23.5475 25.7273 22.7728 24.9526 22.7728 24C22.7728 23.0474 23.5475 22.2727 24.5001 22.2727C25.4527 22.2727 26.2274 23.0474 26.2274 24C26.2274 24.9526 25.4527 25.7273 24.5001 25.7273ZM24.5001 23.1363C24.0234 23.1363 23.6365 23.5241 23.6365 24C23.6365 24.4758 24.0234 24.8636 24.5001 24.8636C24.9768 24.8636 25.3637 24.4758 25.3637 24C25.3637 23.5241 24.9768 23.1363 24.5001 23.1363Z" fill="#FCE4EC"/>
</svg>
