<svg width="24" height="24" viewBox="0 0 24 24" fill="none" xmlns="http://www.w3.org/2000/svg">
<path d="M24 12C24 6.34315 24 3.51472 22.2426 1.75736C20.4853 0 17.6569 2.93659e-08 12 0C6.34315 -2.93507e-08 3.51472 0 1.75736 1.75736C0 3.51472 0 6.34315 0 12C-1.90735e-06 17.6569 0 20.4853 1.75736 22.2426C3.51472 24 6.34315 24 12 24C17.6569 24 20.4853 24 22.2426 22.2426C24 20.4853 24 17.6569 24 12Z" fill="#FFC000"/>
<g filter="url(#filter0_ii)">
<path fill-rule="evenodd" clip-rule="evenodd" d="M22.2426 1.75736C24 3.51472 24 6.34315 24 12C24 17.6569 24 20.4853 22.2426 22.2426C20.4853 24 17.6569 24 12 24C6.34315 24 3.51472 24 1.75736 22.2426C0 20.4853 0 17.6569 0 12C0 6.34315 0 3.51472 1.75736 1.75736C3.51472 0 6.34315 -2.93507e-08 12 0C17.6569 2.93657e-08 20.4853 0 22.2426 1.75736ZM19.1698 4.83016C20.4 6.06031 20.4 8.04021 20.4 12C20.4 15.9598 20.4 17.9397 19.1698 19.1699C17.9397 20.4 15.9598 20.4 12 20.4C8.0402 20.4 6.0603 20.4 4.83014 19.1699C3.59999 17.9397 3.59999 15.9598 3.59999 12C3.59999 8.04021 3.59999 6.06031 4.83014 4.83016C6.0603 3.60001 8.0402 3.60001 12 3.60001C15.9598 3.60001 17.9397 3.60001 19.1698 4.83016Z" fill="#FFC000"/>
</g>
<path fill-rule="evenodd" clip-rule="evenodd" d="M9.0041 7.74493C8.914 7.37683 8.54636 7.11141 8.15015 7.22764L7.70356 7.35864C7.32126 7.47079 7.13307 7.87738 7.22125 8.23767L9.18374 16.2559C9.25595 16.5509 9.50112 16.7783 9.80718 16.7992L9.81802 16.7999H9.83966C9.84765 16.8 9.85563 16.8 9.8636 16.7999H10.2592C10.2688 16.8001 10.2784 16.8 10.2881 16.7998L10.2931 16.7997L10.3095 16.7989C10.6175 16.7809 10.8662 16.5536 10.9391 16.2559L11.9998 11.9219L13.0606 16.2559C13.1333 16.5531 13.3815 16.7813 13.6901 16.7994L13.6994 16.7999H13.7165C13.7245 16.8 13.7324 16.8 13.7404 16.7999H14.136C14.1456 16.8001 14.1552 16.8 14.1649 16.7998L14.1714 16.7996L14.1924 16.7986C14.4977 16.7778 14.7435 16.5517 14.8159 16.2559L16.7784 8.23767C16.8665 7.87737 16.6783 7.47078 16.2961 7.35864L15.8495 7.22764C15.4533 7.11141 15.0856 7.37683 14.9955 7.74493L13.9382 12.0648L12.8809 7.74493C12.8078 7.44643 12.5578 7.21777 12.2477 7.20134L12.2392 7.20089L12.224 7.20089C12.2191 7.20081 12.2145 7.20079 12.2101 7.20081L12.2068 7.20082L12.2028 7.20089L11.7977 7.20089C11.7889 7.20075 11.78 7.20077 11.7712 7.20098L11.7665 7.20109L11.7519 7.20168C11.4423 7.21808 11.1919 7.44596 11.1187 7.74493L10.0614 12.0648L9.0041 7.74493Z" fill="white"/>
<defs>
<filter id="filter0_ii" x="-2" y="-2" width="27" height="27" filterUnits="userSpaceOnUse" color-interpolation-filters="sRGB">
<feFlood flood-opacity="0" result="BackgroundImageFix"/>
<feBlend mode="normal" in="SourceGraphic" in2="BackgroundImageFix" result="shape"/>
<feColorMatrix in="SourceAlpha" type="matrix" values="0 0 0 0 0 0 0 0 0 0 0 0 0 0 0 0 0 0 127 0" result="hardAlpha"/>
<feOffset dx="-2" dy="-2"/>
<feGaussianBlur stdDeviation="5"/>
<feComposite in2="hardAlpha" operator="arithmetic" k2="-1" k3="1"/>
<feColorMatrix type="matrix" values="0 0 0 0 0 0 0 0 0 0 0 0 0 0 0 0 0 0 0.05 0"/>
<feBlend mode="normal" in2="shape" result="effect1_innerShadow"/>
<feColorMatrix in="SourceAlpha" type="matrix" values="0 0 0 0 0 0 0 0 0 0 0 0 0 0 0 0 0 0 127 0" result="hardAlpha"/>
<feOffset dx="1" dy="1"/>
<feGaussianBlur stdDeviation="5"/>
<feComposite in2="hardAlpha" operator="arithmetic" k2="-1" k3="1"/>
<feColorMatrix type="matrix" values="0 0 0 0 1 0 0 0 0 1 0 0 0 0 1 0 0 0 0.5 0"/>
<feBlend mode="normal" in2="effect1_innerShadow" result="effect2_innerShadow"/>
</filter>
</defs>
</svg>
