<svg viewBox="0 0 12 12" xmlns="http://www.w3.org/2000/svg">
<path fill-rule="evenodd" clip-rule="evenodd" d="M3 3C3 1.34315 4.34315 0 6 0C7.65685 0 9 1.34315 9 3V4C9 5.65685 7.65685 7 6 7C4.34315 7 3 5.65685 3 4V3ZM7.5 3V4C7.5 4.82843 6.82843 5.5 6 5.5C5.17157 5.5 4.5 4.82843 4.5 4V3C4.5 2.17157 5.17157 1.5 6 1.5C6.82843 1.5 7.5 2.17157 7.5 3Z" />
<path d="M9.82424 8.59829C9.20292 9.17819 8.2314 9.68862 6.75 9.81828V10.35H7C7.41421 10.35 7.75 10.6858 7.75 11.1C7.75 11.5142 7.41421 11.85 7 11.85H5C4.58579 11.85 4.25 11.5142 4.25 11.1C4.25 10.6858 4.58579 10.35 5 10.35H5.25V9.81829C3.7686 9.68862 2.79708 9.17819 2.17576 8.59829C1.8228 8.26887 1.60143 7.93396 1.46628 7.67197C1.39878 7.54113 1.35262 7.42819 1.32201 7.34249C1.30669 7.29959 1.29521 7.26335 1.28685 7.2349C1.28267 7.22067 1.27927 7.20836 1.27656 7.19813L1.27299 7.18433L1.27158 7.17862L1.27096 7.17606L1.27067 7.17486C1.27067 7.17486 1.27039 7.17371 2 7L1.27039 7.17371C1.17445 6.77076 1.42333 6.36633 1.82628 6.27039C2.2249 6.17549 2.62496 6.41802 2.7264 6.81334C2.72742 6.81671 2.73004 6.82514 2.73463 6.83798C2.74503 6.86712 2.76528 6.91824 2.79935 6.98428C2.86732 7.11604 2.98969 7.30614 3.19924 7.50171C3.60362 7.87914 4.41191 8.35001 6 8.35001C7.58809 8.35001 8.39638 7.87914 8.80076 7.50171C9.0103 7.30614 9.13268 7.11604 9.20065 6.98428C9.23472 6.91824 9.25496 6.86712 9.26537 6.83798C9.26996 6.82514 9.27258 6.81672 9.2736 6.81334C9.37503 6.41802 9.7751 6.17549 10.1737 6.27039C10.5767 6.36633 10.8255 6.77076 10.7296 7.17371L10 7C10.7296 7.17371 10.7293 7.17486 10.7293 7.17486L10.729 7.17606L10.7284 7.17862L10.727 7.18433L10.7234 7.19813C10.7207 7.20836 10.7173 7.22067 10.7131 7.2349C10.7048 7.26335 10.6933 7.29959 10.678 7.34249C10.6474 7.42819 10.6012 7.54113 10.5337 7.67197C10.3986 7.93396 10.1772 8.26887 9.82424 8.59829Z" />
<path fill-rule="evenodd" clip-rule="evenodd" d="M11.5575 0.498275C11.8346 0.806158 11.8096 1.28038 11.5017 1.55747L1.50172 10.5575C1.19384 10.8346 0.719624 10.8096 0.44253 10.5017C0.165436 10.1938 0.190395 9.71962 0.498277 9.44253L10.4983 0.442528C10.8062 0.165434 11.2804 0.190393 11.5575 0.498275Z" fill="#E63E1A"/>
</svg>
