<svg viewBox="0 0 12 12" xmlns="http://www.w3.org/2000/svg">
<path fill-rule="evenodd" clip-rule="evenodd" d="M4.20163 0.826524C3.4233 0.0578254 2.22419 0.0578254 1.44587 0.826524L1.02044 1.24669C0.436491 1.82341 0.0809301 2.74262 0.330306 3.69096C0.629152 5.19676 1.42935 6.81762 2.712 8.22734L0.46967 10.4697C0.176777 10.7626 0.176777 11.2374 0.46967 11.5303C0.762563 11.8232 1.23744 11.8232 1.53033 11.5303L3.78422 9.27644C5.22341 10.5411 6.89624 11.4043 8.4575 11.7009L8.46489 11.7022C9.36708 11.8642 10.2227 11.6135 10.887 10.9574L11.3124 10.5372C11.3529 10.4972 11.3887 10.4528 11.4191 10.4047C11.8796 9.67706 11.8982 8.52522 11.2252 7.76555C11.2142 7.75309 11.2027 7.74099 11.1908 7.72929L10.4615 7.009C9.80476 6.36035 8.78798 6.36035 8.13121 7.009L7.71821 7.41688C7.2842 7.20219 6.84161 6.93288 6.43725 6.62341L10.5303 2.53033C10.8232 2.23744 10.8232 1.76256 10.5303 1.46967C10.2374 1.17678 9.76256 1.17678 9.46967 1.46967L5.35599 5.58335C4.99047 5.14956 4.7084 4.71084 4.51618 4.28418L4.87016 3.93458C5.19848 3.61032 5.40464 3.19486 5.41941 2.74267C5.43429 2.28732 5.25185 1.86375 4.93094 1.54681L4.20163 0.826524ZM4.29215 6.64719C3.74354 6.01501 3.30972 5.33506 3.03651 4.63351C3.03235 4.62283 3.02843 4.61205 3.02477 4.60118C2.85897 4.10995 3.03572 3.63809 3.32992 3.34753L3.81612 2.86734C3.91323 2.77143 3.91979 2.7067 3.92021 2.6937C3.92053 2.68387 3.92064 2.65725 3.8769 2.61405L3.14759 1.89376C2.9535 1.70208 2.69399 1.70208 2.49991 1.89376L2.07448 2.31393C1.81365 2.57153 1.68431 2.95965 1.78419 3.32137C1.78932 3.33996 1.79374 3.35874 1.79742 3.37766C2.03289 4.58697 2.6856 5.951 3.77401 7.16533L4.29215 6.64719ZM4.84736 8.2133C6.09766 9.2921 7.50115 9.99145 8.73351 10.2264C9.16682 10.3033 9.52564 10.1936 9.83293 9.89015L10.1837 9.54374C10.2921 9.31195 10.2675 8.96315 10.1146 8.7746L9.4075 8.07624C9.36206 8.03136 9.32214 8.02251 9.29637 8.02251C9.2706 8.02251 9.23068 8.03136 9.18524 8.07624L8.63826 8.61645C8.34435 8.90673 7.87537 9.07489 7.39051 8.91527C7.36446 8.90669 7.33891 8.8967 7.31396 8.88533C6.67085 8.59218 5.98543 8.18715 5.36893 7.69173L4.84736 8.2133Z" />
</svg>
