<svg viewBox="0 0 12 12" xmlns="http://www.w3.org/2000/svg">
<path d="M6 2.25C6.41422 2.25 6.75 2.58578 6.75 3V6.5C6.75 6.91422 6.41422 7.25 6 7.25C5.58578 7.25 5.25 6.91422 5.25 6.5V3C5.25 2.58578 5.58578 2.25 6 2.25Z"/>
<path d="M6 9.5C6.41422 9.5 6.75 9.16422 6.75 8.75C6.75 8.33578 6.41422 8 6 8C5.58578 8 5.25 8.33578 5.25 8.75C5.25 9.16422 5.58578 9.5 6 9.5Z"/>
<path fill-rule="evenodd" clip-rule="evenodd" d="M6 12C9.31372 12 12 9.31371 12 6C12 2.68629 9.31372 0 6 0C2.68628 0 0 2.68629 0 6C0 9.31371 2.68628 12 6 12ZM6 10.5C8.48529 10.5 10.5 8.48528 10.5 6C10.5 3.51472 8.48529 1.5 6 1.5C3.51471 1.5 1.5 3.51472 1.5 6C1.5 8.48528 3.51471 10.5 6 10.5Z"/>
</svg>
