<svg viewBox="0 0 24 24" xmlns="http://www.w3.org/2000/svg">
<path d="M13.6098 15.6502C13.0272 15.2512 12.4984 14.8272 12.0204 14.3949C11.0764 13.4928 10.5489 12.9636 9.60509 11.9796C9.17281 11.5016 8.74878 10.9728 8.34982 10.3902C7.89687 9.72942 7.88069 8.72829 8.2386 8.20182L8.29131 8.12437C8.66217 7.58033 9.31234 6.62655 9.18298 5.87547C9.06906 5.21333 8.6258 4.32067 7.43145 3.21603C4.96089 0.931858 3.87406 2.319 2.79873 3.69147C2.64791 3.88396 2.4972 4.0763 2.34304 4.25805C1.09584 5.73065 3.28919 10.7391 8.27507 15.7249C13.2609 20.7108 18.2694 22.9042 19.742 21.657C19.9237 21.5028 20.116 21.3521 20.3085 21.2013C21.681 20.1259 23.0681 19.0391 20.784 16.5685C19.6793 15.3742 18.7867 14.9309 18.1245 14.817C17.3735 14.6877 16.4197 15.3378 15.8756 15.7087L15.7982 15.7614C15.2717 16.1193 14.2706 16.1031 13.6098 15.6502Z" />
</svg>
