<svg viewBox="0 0 12 12" xmlns="http://www.w3.org/2000/svg">
<path fill-rule="evenodd" clip-rule="evenodd" d="M6 10.5C8.48528 10.5 10.5 8.48528 10.5 6C10.5 3.51472 8.48528 1.5 6 1.5C3.51472 1.5 1.5 3.51472 1.5 6C1.5 8.48528 3.51472 10.5 6 10.5ZM6 12C9.31371 12 12 9.31371 12 6C12 2.68629 9.31371 0 6 0C2.68629 0 0 2.68629 0 6C0 9.31371 2.68629 12 6 12Z"/>
<path fill-rule="evenodd" clip-rule="evenodd" d="M4.31759 6.97044C4.094 6.63253 3.64045 6.5326 3.29482 6.74862C2.94356 6.96815 2.83678 7.43086 3.05632 7.78212L3.69232 7.38462C3.05632 7.78212 3.05685 7.78296 3.05685 7.78296L3.05739 7.78383L3.05853 7.78564L3.061 7.78952L3.0667 7.79831C3.07083 7.80463 3.07566 7.81184 3.08119 7.81988C3.09224 7.83596 3.10614 7.8554 3.12306 7.87769C3.15687 7.92224 3.20285 7.97833 3.26235 8.0418C3.38146 8.16885 3.55488 8.32557 3.79283 8.47786C4.27547 8.78675 4.99296 9.05769 6.00001 9.05769C7.00706 9.05769 7.72454 8.78675 8.20718 8.47786C8.44513 8.32557 8.61855 8.16885 8.73767 8.0418C8.79717 7.97833 8.84315 7.92224 8.87696 7.87769C8.89387 7.8554 8.90777 7.83596 8.91883 7.81988C8.92436 7.81184 8.92918 7.80463 8.93332 7.79831L8.93901 7.78952L8.94148 7.78564L8.94262 7.78383L8.94317 7.78296C8.94317 7.78296 8.9437 7.78212 8.3077 7.38462L8.9437 7.78212C9.16323 7.43086 9.05645 6.96815 8.7052 6.74862C8.35957 6.5326 7.90601 6.63253 7.68242 6.97045C7.67792 6.97638 7.66498 6.99282 7.64336 7.01589C7.60021 7.06192 7.52123 7.13597 7.3986 7.21445C7.16009 7.3671 6.72373 7.55769 6.00001 7.55769C5.27629 7.55769 4.83993 7.3671 4.60141 7.21445C4.47879 7.13597 4.3998 7.06192 4.35666 7.01589C4.33503 6.99282 4.32209 6.97637 4.31759 6.97044Z"/>
<path fill-rule="evenodd" clip-rule="evenodd" d="M2.94231 4.61539C2.94231 4.20117 3.27809 3.86539 3.69231 3.86539H4.61538C5.0296 3.86539 5.36538 4.20117 5.36538 4.61539C5.36538 5.0296 5.0296 5.36539 4.61538 5.36539H3.69231C3.27809 5.36539 2.94231 5.0296 2.94231 4.61539Z"/>
<path fill-rule="evenodd" clip-rule="evenodd" d="M6.63461 4.61539C6.63461 4.20117 6.9704 3.86539 7.38461 3.86539H8.30769C8.7219 3.86539 9.05769 4.20117 9.05769 4.61539C9.05769 5.0296 8.7219 5.36539 8.30769 5.36539H7.38461C6.9704 5.36539 6.63461 5.0296 6.63461 4.61539Z"/>
</svg>
