<svg viewBox="0 0 24 24" xmlns="http://www.w3.org/2000/svg">
<path d="M21.5873 2.07438C22.3535 1.76794 23.1454 2.45516 22.9772 3.28028L19.5414 20.1168C19.3809 20.9062 18.4763 21.2617 17.8422 20.7841L12.6555 16.8811L10.0118 19.6486C9.54716 20.1342 8.74612 19.9365 8.54682 19.289L6.63937 13.0816L1.5264 11.5334C0.854774 11.3304 0.815964 10.3726 1.46687 10.1112L21.5873 2.07438ZM19.0651 5.81022C19.289 5.60721 19.0289 5.24905 18.7752 5.41089L7.73925 12.4275C7.54512 12.5509 7.45587 12.7937 7.52441 13.0179L9.02942 19.7931C9.05923 19.8966 9.20411 19.882 9.21709 19.7745L9.55354 14.6112C9.56646 14.4839 9.62598 14.3671 9.71922 14.2823L19.0651 5.81022Z"/>
</svg>
