<svg width="14" height="14" viewBox="0 0 14 14" fill="none" xmlns="http://www.w3.org/2000/svg">
<path d="M1.59759 2.54152C2.88268 0.990613 4.83091 0.00187988 7.00428 0C5.32964 0.00299072 3.84517 1.20167 2.96074 3.02947C2.71792 2.96539 2.48946 2.89587 2.27716 2.8217C2.01989 2.73181 1.79339 2.63756 1.59759 2.54152Z" fill="#00314D"/>
<path d="M7.00428 0C8.67685 0.00299072 10.1595 1.20167 11.0428 3.02947C11.2854 2.96539 11.5136 2.89587 11.7257 2.8217C11.9826 2.73181 12.2088 2.63756 12.4044 2.54152C11.1208 0.990613 9.17498 0.00187988 7.00428 0Z" fill="#00314D"/>
<path d="M6.75726 0.955066C6.81164 0.878589 6.85815 0.824799 6.89612 0.786987C6.94955 0.733923 6.98623 0.708374 7.00428 0.7C7.01112 0.703162 7.02061 0.708801 7.03266 0.717432C7.05241 0.731659 7.07909 0.754004 7.11226 0.786987C7.15023 0.824799 7.19665 0.878589 7.25095 0.955066C7.44059 1.22231 7.64006 1.65443 7.81927 2.25137C7.92803 2.61372 8.02508 3.02225 8.10733 3.46868C7.74959 3.48923 7.38117 3.5 7.00428 3.5C6.62696 3.5 6.25802 3.48923 5.89985 3.46868C5.98219 3.02225 6.07941 2.61372 6.18825 2.25137C6.36772 1.65443 6.56745 1.22231 6.75726 0.955066Z" fill="#00314D"/>
<path d="M1.59759 11.4584C2.88388 13.0108 4.82835 14 7.00428 14C9.17755 14 11.1196 13.0108 12.4044 11.4584C12.2088 11.3624 11.9826 11.2681 11.7257 11.1783C11.587 11.1298 11.4414 11.0832 11.2893 11.0389L11.2155 11.0177L11.1517 10.9999C11.1157 10.99 11.0794 10.9802 11.0428 10.9705C10.1584 12.8006 8.67942 14 7.00428 14C5.32708 14 3.84628 12.8006 2.96074 10.9705C2.90311 10.9857 2.84634 11.0012 2.79034 11.0171L2.71399 11.0389C2.56179 11.0832 2.41593 11.1298 2.27716 11.1783C2.01989 11.2681 1.79339 11.3624 1.59759 11.4584Z" fill="#00314D"/>
<path d="M5.60436 6.65H8.40248C8.38897 5.75911 8.3239 4.91957 8.21899 4.1633C7.82449 4.1874 7.41862 4.2 7.00428 4.2C6.85508 4.2 6.70699 4.19838 6.5601 4.19517C6.51008 4.19406 6.46014 4.19278 6.41038 4.19133C6.36626 4.19004 6.32223 4.18864 6.27837 4.18705C6.11318 4.18112 5.9497 4.17317 5.7881 4.1633C5.68302 4.91957 5.61787 5.75911 5.60436 6.65Z" fill="#00314D"/>
<path d="M5.7881 9.8367C6.18303 9.81256 6.58942 9.8 7.00428 9.8C7.41862 9.8 7.82449 9.81256 8.21899 9.8367C8.3239 9.08039 8.38897 8.24089 8.40248 7.35H5.60436C5.61787 8.24089 5.68302 9.08039 5.7881 9.8367Z" fill="#00314D"/>
<path d="M6.18825 11.7486C6.36772 12.3456 6.56745 12.7777 6.75726 13.0449C6.88791 13.2287 6.97332 13.2856 7.00428 13.3C7.02497 13.2904 7.06985 13.2618 7.13629 13.1891C7.16929 13.153 7.2076 13.1059 7.25095 13.0449C7.44059 12.7777 7.64006 12.3456 7.81927 11.7486C7.92803 11.3863 8.02508 10.9777 8.10733 10.5313C7.74959 10.5108 7.38117 10.5 7.00428 10.5C6.62696 10.5 6.25802 10.5108 5.89985 10.5313C5.98219 10.9777 6.07941 11.3863 6.18825 11.7486Z" fill="#00314D"/>
<path d="M1.17231 3.11112C1.58665 3.32735 2.09684 3.51923 2.68167 3.6794C2.34411 4.57093 2.1383 5.57881 2.10128 6.65H0C0.0644681 5.34429 0.487273 4.13267 1.17231 3.11112Z" fill="#00314D"/>
<path d="M1.17231 10.8889C0.487273 9.86729 0.0644681 8.65566 0 7.35H2.10128C2.1383 8.42119 2.34411 9.42906 2.68167 10.3206C2.09684 10.4808 1.58665 10.6727 1.17231 10.8889Z" fill="#00314D"/>
<path d="M2.80299 6.65C2.84104 5.62563 3.04445 4.67369 3.36901 3.84556C3.89989 3.95818 4.47685 4.04688 5.08785 4.10742C4.98114 4.88876 4.91633 5.74689 4.90299 6.65H2.80299Z" fill="#00314D"/>
<path d="M2.80299 7.35H4.90299C4.91633 8.25311 4.98114 9.11124 5.08785 9.89258C4.47685 9.95308 3.89989 10.0418 3.36901 10.1544C3.04445 9.32631 2.84104 8.37436 2.80299 7.35Z" fill="#00314D"/>
<path d="M3.66331 3.19144C3.72504 3.071 3.78959 2.95406 3.85671 2.84084C3.93674 2.70571 4.02045 2.57587 4.10757 2.45167C4.64375 1.68711 5.28698 1.15903 5.97415 0.89491C5.65378 1.49476 5.38531 2.36592 5.19686 3.41472C4.65162 3.362 4.13733 3.28621 3.66331 3.19144Z" fill="#00314D"/>
<path d="M5.97415 13.1051C5.65378 12.5052 5.38531 11.6341 5.19686 10.5853C4.65162 10.638 4.13733 10.7138 3.66331 10.8086C3.79874 11.0727 3.94743 11.32 4.10757 11.5483C4.64375 12.3129 5.28698 12.841 5.97415 13.1051Z" fill="#00314D"/>
<path d="M12.8291 3.11112C12.4153 3.32735 11.9057 3.51923 11.3216 3.6794C11.6587 4.57093 11.8643 5.57881 11.9013 6.65H14C13.9356 5.34429 13.5133 4.13267 12.8291 3.11112Z" fill="#00314D"/>
<path d="M12.8291 10.8889C13.5133 9.86729 13.9356 8.65566 14 7.35H11.9013C11.8643 8.42119 11.6587 9.42906 11.3216 10.3206C11.9057 10.4808 12.4153 10.6727 12.8291 10.8889Z" fill="#00314D"/>
<path d="M11.2004 6.65C11.1625 5.62563 10.9592 4.67369 10.6351 3.84556C10.1049 3.95818 9.52862 4.04688 8.9184 4.10742C9.02493 4.88876 9.08965 5.74689 9.10299 6.65H11.2004Z" fill="#00314D"/>
<path d="M11.2004 7.35H9.10299C9.08965 8.25311 9.02493 9.11124 8.9184 9.89258C9.52862 9.95308 10.1049 10.0418 10.6351 10.1544C10.9592 9.32631 11.1625 8.37436 11.2004 7.35Z" fill="#00314D"/>
<path d="M10.3411 3.19144C10.2059 2.92728 10.0574 2.67999 9.89747 2.45167C9.36189 1.68711 8.71943 1.15903 8.03311 0.89491C8.35315 1.49476 8.62128 2.36592 8.80947 3.41472C9.35402 3.362 9.86772 3.28621 10.3411 3.19144Z" fill="#00314D"/>
<path d="M8.03311 13.1051C8.35315 12.5052 8.62128 11.6341 8.80947 10.5853C9.35402 10.638 9.86772 10.7138 10.3411 10.8086C10.2059 11.0727 10.0574 11.32 9.89747 11.5483C9.36189 12.3129 8.71943 12.841 8.03311 13.1051Z" fill="#00314D"/>
</svg>
