<svg viewBox="0 0 24 24" xmlns="http://www.w3.org/2000/svg">
<path d="M13.6098 15.6502C13.0272 15.2512 12.4984 14.8272 12.0204 14.3949C11.0764 13.4928 10.5489 12.9636 9.60509 11.9796C9.17281 11.5016 8.74878 10.9728 8.34982 10.3902C7.89687 9.72942 7.88069 8.72829 8.2386 8.20182L8.29131 8.12437C8.66217 7.58033 9.31234 6.62655 9.18298 5.87547C9.06906 5.21333 8.6258 4.32067 7.43145 3.21603C4.96089 0.931858 3.87406 2.319 2.79873 3.69147C2.64792 3.88394 2.49719 4.07632 2.34304 4.25805C1.09584 5.73065 3.28919 10.7391 8.27507 15.7249C13.2609 20.7108 18.2694 22.9042 19.742 21.657C19.9237 21.5028 20.116 21.3521 20.3085 21.2013C21.681 20.1259 23.0681 19.0391 20.784 16.5685C19.6793 15.3742 18.7867 14.9309 18.1245 14.817C17.3735 14.6877 16.4197 15.3378 15.8756 15.7087L15.7982 15.7614C15.2717 16.1193 14.2706 16.1031 13.6098 15.6502Z"/>
<path d="M18.5772 5.42284C16.68 3.52572 13.6042 3.52572 11.7071 5.42284C11.3166 5.81336 10.6834 5.81336 10.2929 5.42284C9.90237 5.03231 9.90237 4.39915 10.2929 4.00862C12.9711 1.33046 17.3132 1.33046 19.9914 4.00862C22.6695 6.68678 22.6695 11.0289 19.9914 13.7071C19.6009 14.0976 18.9677 14.0976 18.5772 13.7071C18.1866 13.3166 18.1866 12.6834 18.5772 12.2929C20.4743 10.3958 20.4743 7.31995 18.5772 5.42284Z"/>
<path d="M15 7C15 6.44772 14.5523 6 14 6C13.4477 6 13 6.44772 13 7V11H17C17.5523 11 18 10.5523 18 10C18 9.44772 17.5523 9 17 9H15V7Z"/>
</svg>
