<svg viewBox="0 0 24 24" xmlns="http://www.w3.org/2000/svg">
<path d="M12 11C12.5523 11 13 10.5523 13 10C13 9.44772 12.5523 9 12 9C11.4477 9 11 9.44772 11 10C11 10.5523 11.4477 11 12 11Z"/>
<path d="M9 10C9 10.5523 8.55228 11 8 11C7.44772 11 7 10.5523 7 10C7 9.44772 7.44772 9 8 9C8.55228 9 9 9.44772 9 10Z"/>
<path d="M16 11C16.5523 11 17 10.5523 17 10C17 9.44772 16.5523 9 16 9C15.4477 9 15 9.44772 15 10C15 10.5523 15.4477 11 16 11Z"/>
<path fill-rule="evenodd" clip-rule="evenodd" d="M7.14329 18.5842L11.2473 22.6882C11.663 23.1039 12.337 23.1039 12.7527 22.6882L16.8567 18.5842H19.7276C21.5299 18.5842 23 17.1141 23 15.3118V4.2724C23 2.47015 21.5299 1 19.7276 1H4.2724C2.47015 1 1 2.47015 1 4.2724V15.3118C1 17.1141 2.47015 18.5842 4.2724 18.5842H7.14329ZM12 20.6125L7.97172 16.5842H4.2724C3.57472 16.5842 3 16.0095 3 15.3118V4.2724C3 3.57472 3.57472 3 4.2724 3H19.7276C20.4253 3 21 3.57472 21 4.2724V15.3118C21 16.0095 20.4253 16.5842 19.7276 16.5842H16.0283L12 20.6125Z"/>
</svg>
