<svg viewBox="0 0 12 12" xmlns="http://www.w3.org/2000/svg">
<path fill-rule="evenodd" clip-rule="evenodd" d="M1.44587 0.826524C2.22419 0.0578254 3.4233 0.0578254 4.20163 0.826524L4.93094 1.54681C5.25185 1.86375 5.43429 2.28732 5.41941 2.74267C5.40464 3.19486 5.19848 3.61032 4.87016 3.93458L4.51618 4.28418C4.78651 4.88423 5.23457 5.50816 5.84257 6.10864C6.37776 6.6372 7.05792 7.09026 7.71821 7.41688L8.13121 7.009C8.78798 6.36035 9.80476 6.36035 10.4615 7.009L11.1908 7.72929C11.2027 7.74099 11.2142 7.75309 11.2252 7.76555C11.8982 8.52522 11.8796 9.67706 11.4191 10.4047C11.3887 10.4528 11.3529 10.4972 11.3124 10.5372L10.887 10.9574C10.2227 11.6135 9.36708 11.8642 8.46489 11.7022L8.4575 11.7009C6.70804 11.3686 4.8185 10.3248 3.27457 8.80189C1.6614 7.27028 0.670677 5.40599 0.330306 3.69096C0.0809301 2.74262 0.436491 1.82341 1.02044 1.24669L1.44587 0.826524ZM3.14759 1.89376C2.9535 1.70208 2.69399 1.70208 2.49991 1.89376L2.07448 2.31393C1.81365 2.57153 1.68431 2.95965 1.78419 3.32137C1.78932 3.33996 1.79374 3.35874 1.79742 3.37766C2.06943 4.77461 2.8982 6.37802 4.31219 7.71865L4.32318 7.72929C5.69423 9.08338 7.32556 9.95797 8.73351 10.2264C9.16682 10.3033 9.52564 10.1936 9.83293 9.89015L10.1837 9.54374C10.2921 9.31195 10.2675 8.96315 10.1146 8.7746L9.4075 8.07624C9.36206 8.03136 9.32214 8.02251 9.29637 8.02251C9.2706 8.02251 9.23068 8.03136 9.18524 8.07624L8.63826 8.61645C8.34435 8.90673 7.87537 9.07489 7.39051 8.91527C7.36446 8.90669 7.33891 8.8967 7.31396 8.88533C6.45993 8.49603 5.53129 7.90944 4.78854 7.17588C4.00409 6.40113 3.38764 5.53516 3.03651 4.63351C3.03235 4.62283 3.02843 4.61205 3.02477 4.60118C2.85897 4.10995 3.03572 3.63809 3.32992 3.34753L3.81612 2.86734C3.91323 2.77143 3.91979 2.7067 3.92021 2.6937C3.92053 2.68387 3.92064 2.65725 3.8769 2.61405L3.14759 1.89376Z" />
</svg>
