<svg viewBox="0 0 24 24" xmlns="http://www.w3.org/2000/svg">
<path d="M15.2079 13.6702L17.3386 14.277C17.8487 14.4225 18.0736 15.0131 17.789 15.4582C17.3721 16.1105 16.711 16.9071 15.8839 17.1057C14.4253 17.4561 12.1855 17.1142 9.38868 14.5245C6.96793 12.2831 6.3276 10.4166 6.47886 8.93574C6.56452 8.0958 7.27009 7.33785 7.86471 6.83887C8.27015 6.49872 8.89067 6.63901 9.10537 7.12064L10.0018 9.13173C10.1195 9.39607 10.082 9.70338 9.9038 9.93198L9.44903 10.5157C9.25716 10.7622 9.23126 11.0993 9.3877 11.3692C9.92887 12.3043 12.0492 14.1743 13.0571 14.579C13.348 14.6957 13.6813 14.6244 13.9009 14.4022L14.422 13.8757C14.6262 13.6695 14.9279 13.5906 15.2079 13.6702Z"/>
<path fill-rule="evenodd" clip-rule="evenodd" d="M1.00005 11.9447C0.982409 6.12802 5.60477 1.28913 11.4623 1.01273C17.8998 0.708548 23.1944 5.89659 22.9945 12.26C22.8077 18.1965 17.8158 22.9118 11.8288 22.821C10.1324 22.7953 8.52945 22.3881 7.10232 21.6829L1.5476 22.9882C1.24297 23.0599 0.966419 22.7935 1.02955 22.4893L2.1974 16.8663C1.43665 15.3885 1.00546 13.7163 1.00005 11.9447ZM12 20.4544C14.3007 20.4544 16.4637 19.5657 18.0904 17.9522C19.7026 16.3529 20.613 14.1725 20.6129 11.9106C20.6129 9.62881 19.7169 7.48324 18.0903 5.86971C16.4636 4.25617 14.3006 3.36746 12.0002 3.36746C9.71996 3.36746 7.52172 4.2704 5.90955 5.86971C4.28288 7.48339 3.38694 9.62873 3.38694 11.9109C3.38694 13.2777 3.70192 14.5824 4.32319 15.7892L4.70417 16.5296L3.98734 19.9814L7.39321 19.1811L8.16657 19.5634C9.36316 20.1546 10.653 20.4544 12 20.4544Z"/>
</svg>
