<svg viewBox="0 0 24 24" xmlns="http://www.w3.org/2000/svg">
<path fill-rule="evenodd" clip-rule="evenodd" d="M15.8177 1.00752C19.279 1.17085 22.0104 4.03019 22 7.4673C21.9968 8.51417 21.742 9.50229 21.2924 10.3755L21.9825 13.6982C22.0198 13.878 21.8564 14.0354 21.6764 13.993L18.3941 13.2217C17.5508 13.6384 16.6036 13.879 15.6012 13.8942C12.0634 13.9479 9.11365 11.1616 9.00324 7.65365C8.88515 3.89344 12.0138 0.827778 15.8177 1.00752ZM14.4166 7.49999C14.4166 8.0983 14.9017 8.58332 15.5 8.58332C16.0983 8.58332 16.5833 8.0983 16.5833 7.49999C16.5833 6.90168 16.0983 6.41666 15.5 6.41666C14.9017 6.41666 14.4166 6.90168 14.4166 7.49999ZM18.75 8.58332C18.1517 8.58332 17.6666 8.0983 17.6666 7.49999C17.6666 6.90168 18.1517 6.41666 18.75 6.41666C19.3483 6.41666 19.8333 6.90168 19.8333 7.49999C19.8333 8.0983 19.3483 8.58332 18.75 8.58332ZM11.1666 7.49999C11.1666 8.0983 11.6517 8.58332 12.25 8.58332C12.8483 8.58332 13.3333 8.0983 13.3333 7.49999C13.3333 6.90168 12.8483 6.41666 12.25 6.41666C11.6517 6.41666 11.1666 6.90168 11.1666 7.49999Z"/>
<path d="M9.51735 16.5357C9.92367 16.9031 10.3731 17.2635 10.8683 17.6027C11.43 17.9877 12.281 18.0014 12.7285 17.6972L12.7943 17.6524C13.2567 17.3371 14.0674 16.7845 14.7058 16.8945C15.2687 16.9913 16.0274 17.3681 16.9664 18.3833C18.9079 20.4832 17.7289 21.407 16.5622 22.3211C16.3986 22.4493 16.2352 22.5773 16.0807 22.7084C14.8289 23.7685 10.5718 21.9042 6.33381 17.6662C2.09581 13.4282 0.231465 9.17105 1.29159 7.91934C1.42262 7.76486 1.55072 7.60136 1.67892 7.43775C2.59295 6.27115 3.51676 5.09208 5.61673 7.03362C6.63193 7.97257 7.0087 8.73133 7.10553 9.29415C7.21549 9.93257 6.66285 10.7433 6.34762 11.2057L6.30281 11.2715C5.99859 11.719 6.01234 12.57 6.39735 13.1317C6.73646 13.6269 7.09689 14.0763 7.46433 14.4826C8.26652 15.3191 8.71496 15.7689 9.51735 16.5357Z" />
</svg>
