<svg viewBox="0 0 24 24" xmlns="http://www.w3.org/2000/svg">
<path d="M15.1402 16.3789C15.0683 16.3577 14.9975 16.3389 14.928 16.3203C14.7829 16.2816 14.6432 16.2444 14.5104 16.1911C12.475 15.3742 10.602 14.3202 9.11833 12.7046C8.27459 11.7859 7.6142 10.7487 7.05601 9.651C6.81854 9.1841 6.61459 8.70082 6.41096 8.2183L6.34076 8.0521C6.13344 7.56204 6.43884 7.05577 6.76038 6.68643C7.06213 6.33984 7.45048 6.07469 7.87103 5.87914C8.19925 5.72659 8.52296 5.81457 8.76272 6.0837C9.28088 6.66564 9.75699 7.2773 10.1423 7.95188C10.3794 8.36679 10.3143 8.87396 9.8847 9.15629C9.80103 9.21127 9.72333 9.27395 9.64574 9.33655L9.58791 9.383C9.50256 9.45094 9.42233 9.51956 9.36383 9.61152C9.25698 9.77975 9.25186 9.97831 9.32061 10.1612C9.85033 11.5696 10.7432 12.6649 12.2085 13.2549L12.2712 13.2803C12.4852 13.3677 12.7024 13.4563 12.9486 13.4287C13.2413 13.3956 13.4059 13.1829 13.5715 12.969C13.6619 12.8522 13.7526 12.7351 13.8645 12.6466C14.1743 12.4015 14.5703 12.3982 14.9041 12.6026C15.2379 12.8071 15.5615 13.0264 15.8832 13.2483L15.9495 13.2939C16.2429 13.4959 16.5337 13.6962 16.8045 13.927C17.0846 14.1657 17.1811 14.4787 17.0233 14.8025C16.7347 15.3956 16.3145 15.8889 15.7086 16.2039C15.5917 16.2645 15.4592 16.2972 15.3255 16.3301C15.2635 16.3454 15.2013 16.3607 15.1402 16.3789Z"/>
<path d="M17.3228 9.52851C16.8543 6.98215 14.6676 5.27289 12.0055 5.20068C11.9904 5.20063 11.9753 5.2004 11.9602 5.20017C11.9238 5.19961 11.8874 5.19906 11.8513 5.20113C11.6625 5.21096 11.4952 5.36365 11.5305 5.55545C11.5703 5.77162 11.7948 5.79348 11.9799 5.81151L12.0119 5.81467C12.1056 5.82418 12.1995 5.83203 12.2934 5.83988C12.5013 5.85725 12.7092 5.87462 12.9138 5.90993C14.8878 6.25052 16.4691 7.83787 16.7446 9.75657C16.7863 10.0465 16.8068 10.3394 16.8273 10.6322C16.8325 10.7062 16.8377 10.7807 16.8432 10.8546C16.8572 11.0397 16.9532 11.2125 17.1666 11.21C17.3731 11.2075 17.4816 11.0316 17.4666 10.8464L17.4536 10.6825C17.4233 10.2962 17.3928 9.90864 17.3228 9.52851Z"/>
<path d="M16.0512 10.275C16.0501 10.2832 16.0491 10.2942 16.0479 10.3072C16.0445 10.3454 16.0395 10.4009 16.025 10.4539C15.9544 10.7125 15.549 10.7448 15.4558 10.484C15.4281 10.4066 15.424 10.3184 15.4239 10.2351C15.4229 9.68965 15.3004 9.14464 15.016 8.66998C14.7237 8.1821 14.2771 7.77214 13.7535 7.52389C13.4367 7.3739 13.0943 7.28059 12.7472 7.22511C12.653 7.21001 12.5582 7.19865 12.4634 7.18728C12.4055 7.18033 12.3475 7.17338 12.2897 7.16558C12.1049 7.14074 12.0062 7.02685 12.0151 6.85074C12.0232 6.68574 12.1479 6.5669 12.3338 6.57719C12.9447 6.61067 13.5349 6.73859 14.0781 7.0168C15.1826 7.58274 15.8135 8.47592 15.9977 9.6687C16.0007 9.68815 16.0044 9.70751 16.008 9.72684C16.0145 9.76133 16.0209 9.79575 16.0236 9.83048C16.0311 9.92631 16.0366 10.0222 16.043 10.1339L16.0512 10.275Z"/>
<path d="M14.0306 9.89976C14.0537 10.0972 14.1728 10.2166 14.3955 10.2127C14.4969 10.206 14.6008 10.138 14.6336 10.0023C14.6521 9.92493 14.6443 9.83987 14.637 9.7589L14.6364 9.75225C14.5311 8.57666 13.7934 8.06041 12.7613 7.98834C12.5961 7.97671 12.4491 8.09081 12.4238 8.23705C12.396 8.39762 12.4939 8.53635 12.6709 8.57831C12.7471 8.59637 12.8248 8.60322 12.9027 8.61007C12.9912 8.61787 13.08 8.62568 13.1669 8.65C13.2954 8.68604 13.4183 8.74166 13.5266 8.81801C13.7561 8.97978 13.9011 9.22436 13.968 9.48838C13.9974 9.60442 14.0109 9.72463 14.0243 9.84412C14.0264 9.86269 14.0285 9.88124 14.0306 9.89976Z"/>
<path fill-rule="evenodd" clip-rule="evenodd" d="M22.508 6.28906L22.5015 6.26369C21.9707 4.18779 19.5779 1.96033 17.3805 1.49692L17.3558 1.49197C13.8016 0.836011 10.1978 0.836011 6.64444 1.49197L6.61891 1.49692C4.42228 1.96033 2.02941 4.18794 1.49799 6.26369L1.49209 6.28906C0.83597 9.18802 0.83597 12.128 1.49209 15.027L1.49799 15.0524C2.00684 17.0396 4.22139 19.1648 6.33678 19.7492V22.0665C6.33678 22.9052 7.3932 23.3172 7.99392 22.7119L10.4206 20.2714C10.947 20.2999 11.4736 20.3158 12.0001 20.3158C13.7891 20.3158 15.579 20.1521 17.3557 19.8242L17.3805 19.8192C19.5779 19.3558 21.9707 17.1282 22.5014 15.0525L22.5079 15.0271C23.164 12.128 23.164 9.18817 22.508 6.28906ZM20.5875 14.6067C20.2331 15.961 18.4164 17.6447 16.9729 17.9558C15.0831 18.3035 13.1783 18.452 11.2754 18.4011C11.2376 18.4 11.2012 18.4143 11.1749 18.4406L7.51851 22.0717C7.38071 22.2107 7.13862 22.116 7.13862 21.9242V18.0855C7.13862 18.022 7.09183 17.9682 7.02743 17.9559L7.02634 17.9557C5.58282 17.6446 3.7667 15.9609 3.41172 14.6066C2.82116 11.9862 2.82116 9.32983 3.41172 6.70945C3.7667 5.35512 5.58282 3.67146 7.02634 3.36037C10.3268 2.75306 13.6732 2.75306 16.973 3.36037C18.4172 3.67146 20.2332 5.35512 20.5876 6.70945C21.1788 9.3299 21.1788 11.9863 20.5875 14.6067Z"/>
</svg>
