<svg style="display: none;"
     version="1.1"
     xmlns="http://www.w3.org/2000/svg">
    <defs>
        <symbol id="icon-attach--sm" viewBox="0 0 16 16">
            <path d="M9.50919 1.98777C8.99706 1.47563 8.16672 1.47563 7.65459 1.98777L3.28169 6.36067C2.36704 7.27531 2.36704 8.75825 3.28169 9.6729C4.19634 10.5876 5.67928 10.5876 6.59392 9.6729L9.75213 6.5147C10.045 6.22181 10.5199 6.22181 10.8128 6.5147C11.1057 6.80759 11.1057 7.28247 10.8128 7.57536L7.65458 10.7336C6.15415 12.234 3.72146 12.234 2.22103 10.7336C0.720595 9.23313 0.720594 6.80044 2.22103 5.30001L6.59393 0.927109C7.69185 -0.170812 9.47193 -0.170812 10.5698 0.927109C11.6678 2.02503 11.6678 3.80511 10.5698 4.90303L6.26637 9.20652C5.57096 9.90192 4.44348 9.90193 3.74807 9.20652C3.05266 8.51111 3.05267 7.38363 3.74807 6.68823L6.83686 3.59943C7.12976 3.30654 7.60463 3.30654 7.89752 3.59943C8.19042 3.89233 8.19042 4.3672 7.89752 4.66009L4.80873 7.74889C4.69911 7.85851 4.69911 8.03624 4.80873 8.14586C4.91835 8.25548 5.09608 8.25548 5.2057 8.14586L9.50919 3.84237C10.0213 3.33024 10.0213 2.4999 9.50919 1.98777L10.0395 1.45744L9.50919 1.98777Z"/>
        </symbol>
        <symbol id="icon-close--sm" viewBox="0 0 16 16">
            <path d="M0 6C0 2.68629 2.68629 0 6 0C9.31371 0 12 2.68629 12 6C12 9.31371 9.31371 12 6 12C2.68629 12 0 9.31371 0 6Z"/>
            <path d="M10.6837 2.51406C10.9766 2.22117 10.9766 1.7463 10.6837 1.4534C10.3908 1.16051 9.91596 1.16051 9.62306 1.4534L5.99955 5.07692L2.37603 1.45341C2.08314 1.16051 1.60827 1.16051 1.31537 1.45341C1.02248 1.7463 1.02248 2.22117 1.31537 2.51407L4.93889 6.13758L1.45296 9.62351C1.16006 9.91641 1.16006 10.3913 1.45296 10.6842C1.74585 10.9771 2.22072 10.9771 2.51362 10.6842L5.99955 7.19824L9.48548 10.6842C9.77838 10.9771 10.2533 10.9771 10.5461 10.6842C10.839 10.3913 10.839 9.91641 10.5461 9.62352L7.06021 6.13758L10.6837 2.51406Z"/>
        </symbol>
        <symbol id="icon-send-arrow--sm" viewBox="0 0 16 16">
            <path d="M10.2482 3.31035C9.8673 2.91042 9.23432 2.89498 8.83439 3.27586C8.43446 3.65675 8.41902 4.28973 8.79991 4.68966L11.0001 6.99989H2.66699C2.11471 6.99989 1.66699 7.44761 1.66699 7.99989C1.66699 8.55218 2.11471 8.99989 2.66699 8.99989H11.0003L8.79991 11.3103C8.41902 11.7103 8.43446 12.3433 8.83439 12.7241C9.23432 13.105 9.8673 13.0896 10.2482 12.6897L14.0536 8.69393C14.1269 8.61805 14.1858 8.53327 14.2304 8.44307C14.2343 8.43511 14.2381 8.42711 14.2418 8.41906C14.3008 8.29157 14.3337 8.14957 14.3337 7.99989C14.3337 7.72652 14.224 7.47877 14.0462 7.29825L10.2482 3.31035Z"/>
        </symbol>
        <symbol id="icon-chat--md" viewBox="0 0 24 24">
            <path d="M7.8504 17.8771L7.55751 17.5842H7.14329H4.2724C3.02243 17.5842 2 16.5618 2 15.3118V4.2724C2 3.02243 3.02243 2 4.2724 2H19.7276C20.9776 2 22 3.02243 22 4.2724V15.3118C22 16.5618 20.9776 17.5842 19.7276 17.5842H16.8567H16.4425L16.1496 17.8771L12.0456 21.9811C12.0204 22.0063 11.9796 22.0063 11.9544 21.9811L7.8504 17.8771Z"
                  stroke-width="2"/>
            <circle cx="12" cy="10" r="1"/>
            <circle cx="8" cy="10" r="1"/>
            <circle cx="16" cy="10" r="1"/>
        </symbol>
    </defs>
</svg>
