<svg style="display: none;"
     version="1.1"
     xmlns="http://www.w3.org/2000/svg">
    <defs>
        <symbol id="icon-attach--sm" viewBox="0 0 12 12">
            <path fill-rule="evenodd" clip-rule="evenodd" d="M9.50965 1.98777C8.99751 1.47563 8.16718 1.47563 7.65504 1.98777L3.28215 6.36066C2.3675 7.27531 2.3675 8.75825 3.28215 9.6729C4.1968 10.5875 5.67973 10.5875 6.59438 9.6729L9.75259 6.5147C10.0455 6.2218 10.5204 6.2218 10.8132 6.5147C11.1061 6.80759 11.1061 7.28246 10.8132 7.57536L7.65504 10.7336C6.15461 12.234 3.72192 12.234 2.22149 10.7336C0.721053 9.23312 0.721052 6.80044 2.22149 5.3L6.59438 0.927107C7.6923 -0.170814 9.47239 -0.170814 10.5703 0.927107C11.6682 2.02503 11.6682 3.80511 10.5703 4.90303L6.26682 9.20652C5.57142 9.90192 4.44394 9.90193 3.74853 9.20652C3.05312 8.51111 3.05312 7.38363 3.74853 6.68822L6.83732 3.59943C7.13022 3.30654 7.60509 3.30654 7.89798 3.59943C8.19088 3.89233 8.19088 4.3672 7.89798 4.66009L4.80919 7.74888C4.69957 7.85851 4.69957 8.03624 4.80919 8.14586C4.91881 8.25548 5.09654 8.25548 5.20616 8.14586L9.50965 3.84237C10.0218 3.33024 10.0218 2.4999 9.50965 1.98777Z"/>
        </symbol>
        <symbol id="icon-close--sm" viewBox="0 0 12 12">
            <path d="M10.6842 2.51407C10.9771 2.22117 10.9771 1.7463 10.6842 1.45341C10.3913 1.16051 9.91643 1.16051 9.62354 1.45341L6.00002 5.07692L2.37651 1.45341C2.08361 1.16052 1.60874 1.16052 1.31585 1.45341C1.02295 1.7463 1.02295 2.22118 1.31585 2.51407L4.93936 6.13759L1.45343 9.62352C1.16054 9.91641 1.16054 10.3913 1.45343 10.6842C1.74632 10.9771 2.2212 10.9771 2.51409 10.6842L6.00002 7.19825L9.48596 10.6842C9.77885 10.9771 10.2537 10.9771 10.5466 10.6842C10.8395 10.3913 10.8395 9.91641 10.5466 9.62352L7.06068 6.13758L10.6842 2.51407Z"/>
        </symbol>
        <symbol id="icon-send-arrow--sm" viewBox="0 0 12 12">
            <path d="M7.6859 2.48276C7.40023 2.18281 6.9255 2.17123 6.62555 2.4569C6.3256 2.74256 6.31402 3.21729 6.59969 3.51724L8.24986 5.24992H2C1.58579 5.24992 1.25 5.5857 1.25 5.99992C1.25 6.41413 1.58579 6.74992 2 6.74992H8.25002L6.59969 8.48276C6.31402 8.78271 6.3256 9.25744 6.62555 9.5431C6.9255 9.82877 7.40023 9.81719 7.6859 9.51724L10.54 6.52045C10.5949 6.46354 10.6391 6.39995 10.6725 6.3323C10.6755 6.32633 10.6783 6.32033 10.6811 6.3143C10.7253 6.21868 10.75 6.11218 10.75 5.99992C10.75 5.79489 10.6677 5.60907 10.5344 5.47369L7.6859 2.48276Z"/>
        </symbol>
        <symbol id="icon-chat--md" viewBox="0 0 24 24">
            <path d="M12 11C12.5523 11 13 10.5523 13 10C13 9.44772 12.5523 9 12 9C11.4477 9 11 9.44772 11 10C11 10.5523 11.4477 11 12 11Z"/>
            <path d="M9 10C9 10.5523 8.55228 11 8 11C7.44772 11 7 10.5523 7 10C7 9.44772 7.44772 9 8 9C8.55228 9 9 9.44772 9 10Z"/>
            <path d="M16 11C16.5523 11 17 10.5523 17 10C17 9.44772 16.5523 9 16 9C15.4477 9 15 9.44772 15 10C15 10.5523 15.4477 11 16 11Z"/>
            <path fill-rule="evenodd" clip-rule="evenodd"
                  d="M7.14329 18.5842L11.2473 22.6882C11.663 23.1039 12.337 23.1039 12.7527 22.6882L16.8567 18.5842H19.7276C21.5299 18.5842 23 17.1141 23 15.3118V4.2724C23 2.47015 21.5299 1 19.7276 1H4.2724C2.47015 1 1 2.47015 1 4.2724V15.3118C1 17.1141 2.47015 18.5842 4.2724 18.5842H7.14329ZM12 20.6125L7.97172 16.5842H4.2724C3.57472 16.5842 3 16.0095 3 15.3118V4.2724C3 3.57472 3.57472 3 4.2724 3H19.7276C20.4253 3 21 3.57472 21 4.2724V15.3118C21 16.0095 20.4253 16.5842 19.7276 16.5842H16.0283L12 20.6125Z"/>
        </symbol>
    </defs>
</svg>
