<svg style="display: none;"
     version="1.1"
     xmlns="http://www.w3.org/2000/svg">
    <defs>
        <symbol id="icon-attach--sm" viewBox="0 0 16 16">
            <path fill-rule="evenodd" clip-rule="evenodd" d="M10.0096 1.98777C9.49751 1.47563 8.66717 1.47563 8.15504 1.98777L3.78214 6.36066C2.86749 7.27531 2.86749 8.75825 3.78214 9.6729C4.69679 10.5875 6.17973 10.5875 7.09437 9.6729L10.2526 6.5147C10.5455 6.2218 11.0203 6.2218 11.3132 6.5147C11.6061 6.80759 11.6061 7.28246 11.3132 7.57536L8.15503 10.7336C6.6546 12.234 4.22191 12.234 2.72148 10.7336C1.22104 9.23312 1.22104 6.80044 2.72148 5.3L7.09438 0.927107C8.1923 -0.170814 9.97238 -0.170814 11.0703 0.927107C12.1682 2.02503 12.1682 3.80511 11.0703 4.90303L6.76682 9.20652C6.07141 9.90192 4.94393 9.90193 4.24852 9.20652C3.55311 8.51111 3.55312 7.38363 4.24852 6.68822L7.33731 3.59943C7.63021 3.30654 8.10508 3.30654 8.39797 3.59943C8.69087 3.89233 8.69087 4.3672 8.39797 4.66009L5.30918 7.74888C5.19956 7.85851 5.19956 8.03624 5.30918 8.14586C5.4188 8.25548 5.59653 8.25548 5.70615 8.14586L10.0096 3.84237C10.5218 3.33024 10.5218 2.4999 10.0096 1.98777Z"/>
        </symbol>
        <symbol id="icon-close--sm" viewBox="0 0 16 16">
            <path d="M11.1842 2.51407C11.4771 2.22117 11.4771 1.7463 11.1842 1.45341C10.8913 1.16051 10.4164 1.16051 10.1235 1.45341L6.50002 5.07692L2.87651 1.45341C2.58361 1.16052 2.10874 1.16052 1.81585 1.45341C1.52295 1.7463 1.52295 2.22118 1.81585 2.51407L5.43936 6.13759L1.95343 9.62352C1.66054 9.91641 1.66054 10.3913 1.95343 10.6842C2.24632 10.9771 2.7212 10.9771 3.01409 10.6842L6.50002 7.19825L9.98596 10.6842C10.2788 10.9771 10.7537 10.9771 11.0466 10.6842C11.3395 10.3913 11.3395 9.91641 11.0466 9.62352L7.56068 6.13758L11.1842 2.51407Z"/>
        </symbol>
        <symbol id="icon-send-arrow--sm" viewBox="0 0 16 16">
            <path d="M8.1859 2.48276C7.90023 2.18281 7.4255 2.17123 7.12555 2.4569C6.8256 2.74256 6.81402 3.21729 7.09969 3.51724L8.74986 5.24992H2.5C2.08579 5.24992 1.75 5.5857 1.75 5.99992C1.75 6.41413 2.08579 6.74992 2.5 6.74992H8.75002L7.09969 8.48276C6.81402 8.78271 6.8256 9.25744 7.12555 9.5431C7.4255 9.82877 7.90023 9.81719 8.1859 9.51724L11.04 6.52045C11.0949 6.46354 11.1391 6.39995 11.1725 6.3323C11.1755 6.32633 11.1783 6.32033 11.1811 6.3143C11.2253 6.21868 11.25 6.11218 11.25 5.99992C11.25 5.79489 11.1677 5.60907 11.0344 5.47369L8.1859 2.48276Z"/>
        </symbol>
        <symbol id="icon-chat--md" viewBox="0 0 24 24">
            <path d="M12.5 11C13.0523 11 13.5 10.5523 13.5 10C13.5 9.44772 13.0523 9 12.5 9C11.9477 9 11.5 9.44772 11.5 10C11.5 10.5523 11.9477 11 12.5 11Z"/>
            <path d="M9.5 10C9.5 10.5523 9.05228 11 8.5 11C7.94772 11 7.5 10.5523 7.5 10C7.5 9.44772 7.94772 9 8.5 9C9.05228 9 9.5 9.44772 9.5 10Z"/>
            <path d="M16.5 11C17.0523 11 17.5 10.5523 17.5 10C17.5 9.44772 17.0523 9 16.5 9C15.9477 9 15.5 9.44772 15.5 10C15.5 10.5523 15.9477 11 16.5 11Z" />
            <path fill-rule="evenodd" clip-rule="evenodd" d="M7.64329 18.5842L11.7473 22.6882C12.163 23.1039 12.837 23.1039 13.2527 22.6882L17.3567 18.5842H20.2276C22.0299 18.5842 23.5 17.1141 23.5 15.3118V4.2724C23.5 2.47015 22.0299 1 20.2276 1H4.7724C2.97015 1 1.5 2.47015 1.5 4.2724V15.3118C1.5 17.1141 2.97015 18.5842 4.7724 18.5842H7.64329ZM12.5 20.6125L8.47172 16.5842H4.7724C4.07472 16.5842 3.5 16.0095 3.5 15.3118V4.2724C3.5 3.57472 4.07472 3 4.7724 3H20.2276C20.9253 3 21.5 3.57472 21.5 4.2724V15.3118C21.5 16.0095 20.9253 16.5842 20.2276 16.5842H16.5283L12.5 20.6125Z"/>
        </symbol>
    </defs>
</svg>
